<svg xmlns="http://www.w3.org/2000/svg" viewBox="0 0 707.89 435.02"><defs><style>.cls-1{isolation:isolate;}.cls-2{fill:#daef9a;mix-blend-mode:multiply;}.cls-3{fill:#89ac2a;}.cls-4{fill:#9bc632;}.cls-5{fill:#4d5916;}.cls-6{fill:#fff;}.cls-7{fill:#cb2228;}.cls-8{fill:#1d1127;}.cls-9{fill:#a8c63e;}.cls-10{fill:#cb7838;}.cls-11{fill:#1a76fc;}.cls-12{fill:#0243a0;}.cls-13{fill:#f0f1f1;}.cls-14{fill:#005eff;}.cls-15{fill:#78b3f9;}.cls-16{fill:#e7a84a;}.cls-17{fill:#df8a48;}.cls-18{fill:#e1985e;}.cls-19{fill:#9569f4;}.cls-20{fill:#00479b;}</style></defs><title>3699171</title><g class="cls-1"><g id="OBJECTS"><path class="cls-2" d="M668.51,233.83c4.76-47.38-6.94-96.17-39.6-138.79C602.4,60.45,562.17,27.25,515.58,28.48c-47.84,1.25-77.68,33.63-103,69.72-32.73,46.64-96.39,33.47-139.77,10.22-48-25.73-96.89-29.7-135.84,13-31.9,35-53.47,82.66-62.83,128.54-10.73,52.61,5,110,43.89,148.23,55.94,55,149.07,66,224.29,65.26,66.66-.67,135.55-13.54,195-43.86C611,382,660.88,309.72,668.51,233.83Z" transform="translate(-19.92 -28.44)"/><ellipse class="cls-2" cx="140.78" cy="394.14" rx="140.78" ry="14.37"/><path class="cls-3" d="M588.64,195.14a9,9,0,1,0-7.52,11.36c1.91,5.85,4.93,16.29,5.59,25.77l5.65-1.62s-4.88-8.12-8.91-24.78A9,9,0,0,0,588.64,195.14Z" transform="translate(-19.92 -28.44)"/><path class="cls-3" d="M622.69,207.25a6.8,6.8,0,1,0-9.14,4.79c-.86,4.57-2.67,12.6-5.69,19.13l4.34,1s-.27-7.17,3.13-19.69A6.79,6.79,0,0,0,622.69,207.25Z" transform="translate(-19.92 -28.44)"/><path class="cls-3" d="M649,222.73a7.9,7.9,0,1,0-12-.24c-3.44,4.17-9.77,11.32-16.49,16.27l3.86,3.43s3.73-7.44,14.19-18.27A7.88,7.88,0,0,0,649,222.73Z" transform="translate(-19.92 -28.44)"/><path class="cls-3" d="M654.2,250.91a4.74,4.74,0,1,0-6.23-3.59,60.84,60.84,0,0,1-13.38,3.79l1,2.92s4.11-2.83,12.75-5.5A4.72,4.72,0,0,0,654.2,250.91Z" transform="translate(-19.92 -28.44)"/><path class="cls-3" d="M662.22,282.69a6.8,6.8,0,1,0-5.36-8.82c-4.61-.58-12.73-1.89-19.44-4.5l-.71,4.4s7.13-.72,19.84,1.9A6.77,6.77,0,0,0,662.22,282.69Z" transform="translate(-19.92 -28.44)"/><path class="cls-3" d="M633.72,303.86a4.27,4.27,0,1,0,1.44-6.3,55.37,55.37,0,0,1-6.79-10.51l-2.24,1.66s3.53,2.79,8.1,9.52A4.26,4.26,0,0,0,633.72,303.86Z" transform="translate(-19.92 -28.44)"/><path class="cls-3" d="M611,320a6.81,6.81,0,1,0,5.37-8.8c-1.61-4.37-4.18-12.18-5-19.34l-4.23,1.39s3.92,6,7.44,18.49A6.79,6.79,0,0,0,611,320Z" transform="translate(-19.92 -28.44)"/><path class="cls-3" d="M583.22,319.38a6.8,6.8,0,1,0,8.47-5.89c.29-4.64,1.09-12.83,3.28-19.68l-4.43-.45s1.16,7.08-.67,19.92A6.79,6.79,0,0,0,583.22,319.38Z" transform="translate(-19.92 -28.44)"/><path class="cls-3" d="M557.81,302.54a5.67,5.67,0,1,0,8.55-.9,73.35,73.35,0,0,1,10.3-13.05l-3.06-2.1s-2,5.63-8.48,14.27A5.66,5.66,0,0,0,557.81,302.54Z" transform="translate(-19.92 -28.44)"/><path class="cls-3" d="M546.47,276a5.8,5.8,0,1,0,8.11,3.41,74.42,74.42,0,0,1,15.67-6.62l-1.7-3.4S564,273.42,553.9,278A5.78,5.78,0,0,0,546.47,276Z" transform="translate(-19.92 -28.44)"/><path class="cls-3" d="M538,246.6a6.8,6.8,0,1,0,6.4,8.08c4.65,0,12.88.3,19.85,2.06l.17-4.45s-7,1.6-19.92.57A6.78,6.78,0,0,0,538,246.6Z" transform="translate(-19.92 -28.44)"/><path class="cls-3" d="M559,223.61a5.43,5.43,0,1,0,1.37,8.11,70.12,70.12,0,0,1,13.07,9.06l1.82-3s-5.49-1.57-14.13-7.26A5.4,5.4,0,0,0,559,223.61Z" transform="translate(-19.92 -28.44)"/><path class="cls-4" d="M638.78,251.57c-2.61-6.43-5.92-12.75-11-17.46a36.71,36.71,0,0,0-19.56-8.91c-12-1.81-24.86,1.46-34.13,9.33S559.47,254.88,560.8,267s9.59,23.31,21,27.6a49,49,0,0,0,12.72,2.61c10.22.95,20.89.35,30.16-4.06s16.91-13.2,17.81-23.43C643,263.48,641.12,257.33,638.78,251.57Z" transform="translate(-19.92 -28.44)"/><path class="cls-3" d="M642.46,269.68c.55-6.2-1.34-12.35-3.68-18.11-2.61-6.43-5.92-12.75-11-17.46a36.71,36.71,0,0,0-19.56-8.91,44.45,44.45,0,0,0-22.8,2.61c8.55.11,21.55,2,32.39,11.18,17.83,15,8.28,44.19-5.48,48.13-12.83,3.68-29.28,4.27-44.31-2.83a32,32,0,0,0,13.76,10.27,49,49,0,0,0,12.72,2.61c10.22.95,20.89.35,30.16-4.06S641.56,279.91,642.46,269.68Z" transform="translate(-19.92 -28.44)"/><path class="cls-5" d="M601.72,272.09s-13.84-2-17.91,3.09-1.27,11.7,11.42,11.2,15.81-7.82,13.44-10.87S601.72,272.09,601.72,272.09Z" transform="translate(-19.92 -28.44)"/><path class="cls-6" d="M583.26,277.76s.07-2.38,3.45-3.76,8.62-1.53,11.78-1.5,6.43.78,7.56,1.84-1.56,5.12-2.2,4.19-1.31-3.78-1.94-3.61-1.74,3.7-3.09,2.95-1.67-4-2.37-3.59-1,3.88-2.32,3.78c-1.71-.14-2.23-4-3.13-3.49s-.49,4.07-1.75,4.1c-1.54,0-2.8-2.72-3.24-2.41s1.19,3.48-.22,3.66S583.26,277.76,583.26,277.76Z" transform="translate(-19.92 -28.44)"/><path class="cls-7" d="M605,282.54a35.66,35.66,0,0,1-9.68,2.55c-4.44.3-8.4-.06-8.43-1.85s3.84-3.58,5.74-3.11a15.82,15.82,0,0,1,2.11.59,5.94,5.94,0,0,1,5.24-2.1C603.6,278.86,605,282.54,605,282.54Z" transform="translate(-19.92 -28.44)"/><path class="cls-3" d="M566.33,260.8a1.87,1.87,0,1,1-2.32-1.29A1.87,1.87,0,0,1,566.33,260.8Z" transform="translate(-19.92 -28.44)"/><path class="cls-3" d="M573.14,251.6a4.7,4.7,0,1,1-5.82-3.23A4.7,4.7,0,0,1,573.14,251.6Z" transform="translate(-19.92 -28.44)"/><path class="cls-3" d="M574.63,244.48a1.73,1.73,0,0,1-3.32,1,1.73,1.73,0,1,1,3.32-1Z" transform="translate(-19.92 -28.44)"/><path class="cls-3" d="M582.92,237.54a2.83,2.83,0,1,1-3.51-1.95A2.84,2.84,0,0,1,582.92,237.54Z" transform="translate(-19.92 -28.44)"/><path class="cls-3" d="M591.17,234a1.67,1.67,0,1,1-2.07-1.15A1.68,1.68,0,0,1,591.17,234Z" transform="translate(-19.92 -28.44)"/><path class="cls-3" d="M600.71,234.77a2.24,2.24,0,1,1-2.77-1.54A2.26,2.26,0,0,1,600.71,234.77Z" transform="translate(-19.92 -28.44)"/><path class="cls-3" d="M567.28,270.92a2.15,2.15,0,1,1-2.66-1.48A2.16,2.16,0,0,1,567.28,270.92Z" transform="translate(-19.92 -28.44)"/><path class="cls-3" d="M569.7,277.57a1.18,1.18,0,1,1-1.46-.81A1.19,1.19,0,0,1,569.7,277.57Z" transform="translate(-19.92 -28.44)"/><path class="cls-3" d="M575.07,283.06a.88.88,0,0,1-.61,1.11.89.89,0,1,1-.49-1.72A.89.89,0,0,1,575.07,283.06Z" transform="translate(-19.92 -28.44)"/><path class="cls-3" d="M618.44,275.42a1.72,1.72,0,0,1-3.31.95,1.72,1.72,0,0,1,3.31-.95Z" transform="translate(-19.92 -28.44)"/><path class="cls-3" d="M624.19,266.31a3,3,0,1,1-3.72-2.06A3,3,0,0,1,624.19,266.31Z" transform="translate(-19.92 -28.44)"/><path class="cls-3" d="M623.91,260.32a.69.69,0,0,1-.47.86.69.69,0,1,1-.38-1.33A.68.68,0,0,1,623.91,260.32Z" transform="translate(-19.92 -28.44)"/><path class="cls-3" d="M622.2,250.19a1.26,1.26,0,0,1-.87,1.56,1.26,1.26,0,1,1,.87-1.56Z" transform="translate(-19.92 -28.44)"/><path class="cls-6" d="M578.12,256.64s-4.65-.32-4.46,3.05,2.14,6.63,6.26,6.4S582.69,258.2,578.12,256.64Z" transform="translate(-19.92 -28.44)"/><path class="cls-8" d="M579.12,260.13a2.35,2.35,0,1,1-2.91-1.61A2.35,2.35,0,0,1,579.12,260.13Z" transform="translate(-19.92 -28.44)"/><path class="cls-6" d="M595.3,254.44s-4.19.7-3.14,4.36,3.72,5.15,7,3.51S600.31,253.52,595.3,254.44Z" transform="translate(-19.92 -28.44)"/><path class="cls-8" d="M596.88,257.48a2.35,2.35,0,1,1-2.91-1.61A2.34,2.34,0,0,1,596.88,257.48Z" transform="translate(-19.92 -28.44)"/><path class="cls-8" d="M582.56,260.18s-15.81-2.29-15.42-2.83,5-5.45,5-5.45l10.78,6.87Z" transform="translate(-19.92 -28.44)"/><polygon class="cls-8" points="569.54 229 571 229.68 584.63 222.78 576.41 219.38 569.54 229"/><path class="cls-4" d="M539.51,253.64a3,3,0,1,1-3.72-2.07A3,3,0,0,1,539.51,253.64Z" transform="translate(-19.92 -28.44)"/><path class="cls-4" d="M555.94,229.57a1.18,1.18,0,1,1-1.46-.81A1.18,1.18,0,0,1,555.94,229.57Z" transform="translate(-19.92 -28.44)"/><path class="cls-4" d="M583.52,196.83a4.39,4.39,0,1,1-5.42-3A4.39,4.39,0,0,1,583.52,196.83Z" transform="translate(-19.92 -28.44)"/><path class="cls-4" d="M616.6,205.87a2.63,2.63,0,1,1-3.25-1.81A2.63,2.63,0,0,1,616.6,205.87Z" transform="translate(-19.92 -28.44)"/><path class="cls-4" d="M643.64,215.33a3.44,3.44,0,1,1-4.25-2.36A3.44,3.44,0,0,1,643.64,215.33Z" transform="translate(-19.92 -28.44)"/><path class="cls-4" d="M654.7,245.86a2.16,2.16,0,1,1-2.67-1.47A2.17,2.17,0,0,1,654.7,245.86Z" transform="translate(-19.92 -28.44)"/><path class="cls-4" d="M665.65,273.72a2.53,2.53,0,1,1-3.13-1.73A2.54,2.54,0,0,1,665.65,273.72Z" transform="translate(-19.92 -28.44)"/><path class="cls-4" d="M638.09,301.16a1.88,1.88,0,1,1-2.32-1.29A1.87,1.87,0,0,1,638.09,301.16Z" transform="translate(-19.92 -28.44)"/><path class="cls-4" d="M619.51,317.31a3,3,0,1,1-3.72-2.07A3,3,0,0,1,619.51,317.31Z" transform="translate(-19.92 -28.44)"/><path class="cls-4" d="M589.05,319.26a2,2,0,1,1-2.48-1.38A2,2,0,0,1,589.05,319.26Z" transform="translate(-19.92 -28.44)"/><path class="cls-4" d="M562.46,303.06a1.59,1.59,0,1,1-3.05.88,1.59,1.59,0,0,1,3.05-.88Z" transform="translate(-19.92 -28.44)"/><path class="cls-4" d="M548.93,280.05a2.39,2.39,0,1,1-3-1.63A2.39,2.39,0,0,1,548.93,280.05Z" transform="translate(-19.92 -28.44)"/><path class="cls-4" d="M629.58,281.78a2,2,0,1,1-2.43-1.35A2,2,0,0,1,629.58,281.78Z" transform="translate(-19.92 -28.44)"/><path class="cls-4" d="M634.25,270.09a1,1,0,0,1-.65,1.17.95.95,0,1,1-.52-1.82A1,1,0,0,1,634.25,270.09Z" transform="translate(-19.92 -28.44)"/><path class="cls-4" d="M631.19,243.22a3.23,3.23,0,1,1-4-2.22A3.23,3.23,0,0,1,631.19,243.22Z" transform="translate(-19.92 -28.44)"/><path class="cls-4" d="M637.16,253.94a2.95,2.95,0,1,1-3.65-2A3,3,0,0,1,637.16,253.94Z" transform="translate(-19.92 -28.44)"/><path class="cls-4" d="M611.53,291.26a1.94,1.94,0,1,1-2.4-1.33A1.94,1.94,0,0,1,611.53,291.26Z" transform="translate(-19.92 -28.44)"/><path class="cls-4" d="M594.25,291.57a1.64,1.64,0,1,1-2-1.12A1.64,1.64,0,0,1,594.25,291.57Z" transform="translate(-19.92 -28.44)"/><path class="cls-4" d="M612.06,228.84a.83.83,0,0,1-.57,1,.83.83,0,1,1,.57-1Z" transform="translate(-19.92 -28.44)"/><path class="cls-4" d="M621.11,232.54a2.82,2.82,0,1,1-3.5-1.94A2.82,2.82,0,0,1,621.11,232.54Z" transform="translate(-19.92 -28.44)"/><path class="cls-4" d="M626.81,236.18a2.24,2.24,0,1,1-2.77-1.54A2.25,2.25,0,0,1,626.81,236.18Z" transform="translate(-19.92 -28.44)"/><path class="cls-3" d="M591.48,104.74a6.19,6.19,0,1,0-8.9-2.94,79.69,79.69,0,0,1-16.09,8.35l2.09,3.46s4.51-4.7,14.84-10.38A6.17,6.17,0,0,0,591.48,104.74Z" transform="translate(-19.92 -28.44)"/><path class="cls-3" d="M589.58,129.52a4.68,4.68,0,1,0-4.83-5.2A60.09,60.09,0,0,1,571,124l.13,3.06s4.71-1.48,13.63-1.48A4.66,4.66,0,0,0,589.58,129.52Z" transform="translate(-19.92 -28.44)"/><path class="cls-3" d="M584.06,149.78a5.43,5.43,0,1,0-2-8,70.09,70.09,0,0,1-13.77-8L566.7,137s5.61,1.13,14.69,6.12A5.41,5.41,0,0,0,584.06,149.78Z" transform="translate(-19.92 -28.44)"/><path class="cls-3" d="M566.28,158.3a3.27,3.27,0,1,0,1.26-4.78,42.08,42.08,0,0,1-4.92-8.2l-1.76,1.22a34.88,34.88,0,0,1,6,7.47A3.25,3.25,0,0,0,566.28,158.3Z" transform="translate(-19.92 -28.44)"/><path class="cls-3" d="M546.64,169.35a4.68,4.68,0,1,0,4.89-5.14,59.77,59.77,0,0,1-.52-13.72l-3,.32s1.77,4.61,2.32,13.51A4.66,4.66,0,0,0,546.64,169.35Z" transform="translate(-19.92 -28.44)"/><path class="cls-3" d="M527.45,154.25a2.94,2.94,0,1,0,4.45-.18,38,38,0,0,1,5.75-6.4l-1.51-1.18a31.71,31.71,0,0,1-4.85,7.09A2.93,2.93,0,0,0,527.45,154.25Z" transform="translate(-19.92 -28.44)"/><path class="cls-3" d="M512.62,142.1a4.68,4.68,0,1,0,6.81,2,60.63,60.63,0,0,1,11.94-6.77l-1.68-2.56s-3.28,3.69-10.93,8.27A4.67,4.67,0,0,0,512.62,142.1Z" transform="translate(-19.92 -28.44)"/><path class="cls-3" d="M508.05,123.54a4.68,4.68,0,1,0,5.44,4.56,59.62,59.62,0,0,1,13.65-1.37l-.5-3s-4.49,2-13.34,3.15A4.66,4.66,0,0,0,508.05,123.54Z" transform="translate(-19.92 -28.44)"/><path class="cls-3" d="M514.65,103.64a3.9,3.9,0,1,0,2.13,5.51,50.28,50.28,0,0,1,10.52,4.48l.85-2.4s-4.1-.31-11-3.06A3.89,3.89,0,0,0,514.65,103.64Z" transform="translate(-19.92 -28.44)"/><path class="cls-3" d="M530.24,91.32a4,4,0,1,0-.8,6,51.38,51.38,0,0,1,7.22,9.21l2-1.75s-3.53-2.29-8.36-8.16A4,4,0,0,0,530.24,91.32Z" transform="translate(-19.92 -28.44)"/><path class="cls-3" d="M548.2,80.39A4.68,4.68,0,1,0,544,86.1a59.85,59.85,0,0,1,2.22,13.54l3-.69s-2.32-4.35-4-13.12A4.67,4.67,0,0,0,548.2,80.39Z" transform="translate(-19.92 -28.44)"/><path class="cls-3" d="M567.24,90.2a3.73,3.73,0,1,0-5.14,2.37,47.67,47.67,0,0,1-3.65,10.31l2.35.66a40,40,0,0,1,2.26-10.69A3.71,3.71,0,0,0,567.24,90.2Z" transform="translate(-19.92 -28.44)"/><path class="cls-4" d="M543.8,82.68a2.07,2.07,0,1,1,.7-2.84A2.07,2.07,0,0,1,543.8,82.68Z" transform="translate(-19.92 -28.44)"/><path class="cls-4" d="M562.73,89.24a.8.8,0,0,1-1.11-.27.81.81,0,1,1,1.39-.84A.8.8,0,0,1,562.73,89.24Z" transform="translate(-19.92 -28.44)"/><path class="cls-4" d="M589.43,101.65a3,3,0,1,1,1-4.15A3,3,0,0,1,589.43,101.65Z" transform="translate(-19.92 -28.44)"/><path class="cls-4" d="M589.4,125.23a1.81,1.81,0,1,1,.61-2.49A1.82,1.82,0,0,1,589.4,125.23Z" transform="translate(-19.92 -28.44)"/><path class="cls-4" d="M588,144.88a2.37,2.37,0,1,1,.8-3.25A2.36,2.36,0,0,1,588,144.88Z" transform="translate(-19.92 -28.44)"/><path class="cls-4" d="M569.72,157.72a1.48,1.48,0,1,1,.5-2A1.48,1.48,0,0,1,569.72,157.72Z" transform="translate(-19.92 -28.44)"/><path class="cls-4" d="M553.21,170a1.74,1.74,0,1,1,.59-2.39A1.74,1.74,0,0,1,553.21,170Z" transform="translate(-19.92 -28.44)"/><path class="cls-4" d="M530,156.67a1.29,1.29,0,1,1-1.34-2.21,1.29,1.29,0,0,1,1.34,2.21Z" transform="translate(-19.92 -28.44)"/><path class="cls-4" d="M516,147.25a2.07,2.07,0,1,1,.7-2.84A2.07,2.07,0,0,1,516,147.25Z" transform="translate(-19.92 -28.44)"/><path class="cls-4" d="M509.18,127.38a1.37,1.37,0,0,1-1.89-.46,1.38,1.38,0,1,1,1.89.46Z" transform="translate(-19.92 -28.44)"/><path class="cls-4" d="M515.14,106.82a1.09,1.09,0,1,1,.36-1.5A1.09,1.09,0,0,1,515.14,106.82Z" transform="translate(-19.92 -28.44)"/><path class="cls-4" d="M528,93.69a1.64,1.64,0,1,1,.55-2.26A1.65,1.65,0,0,1,528,93.69Z" transform="translate(-19.92 -28.44)"/><path class="cls-4" d="M569.64,115.68a35.74,35.74,0,0,0-7.36-10.51,22.73,22.73,0,0,0-11.63-5.5,25.31,25.31,0,0,0-21.41,6.45,28.9,28.9,0,0,0-8.22,25.7c1.79,10,9.15,18.26,18.1,20a29,29,0,0,0,9.16,0c6.77-.86,13.25-2.89,18.13-7.35a21.6,21.6,0,0,0,6.94-17.56A32.14,32.14,0,0,0,569.64,115.68Z" transform="translate(-19.92 -28.44)"/><path class="cls-3" d="M573.35,126.9a32.14,32.14,0,0,0-3.71-11.22,35.74,35.74,0,0,0-7.36-10.51,22.73,22.73,0,0,0-11.63-5.5,25.32,25.32,0,0,0-14,1.66c5.56.07,13.67,1.3,20.67,7,11,9,8.86,28.93,1.35,33.27a39.23,39.23,0,0,1-30.78,3.74,21.14,21.14,0,0,0,11.24,6.4,29,29,0,0,0,9.16,0c6.77-.86,13.25-2.89,18.13-7.35A21.6,21.6,0,0,0,573.35,126.9Z" transform="translate(-19.92 -28.44)"/><path class="cls-5" d="M542.94,129c0-.6-9.18,1.12-10.56,4.86-1.81,5.24.68,6,6.9,4.9a15.08,15.08,0,0,1,6.48.29c8.7,2.3,9.18-2.42,4.16-7.83A12.44,12.44,0,0,0,542.94,129Z" transform="translate(-19.92 -28.44)"/><path class="cls-6" d="M532.17,135.22s-.14-1.14,1.66-2.84a13.74,13.74,0,0,1,7-3.07,12.25,12.25,0,0,1,6.31.67c1.53.72-.68,2.31-1.67,2.21-1.21-.11-.94-2.44-1.39-2.37s-.88,2.09-2.37,2.09c-.64,0-1.47-2.12-1.87-1.92s-.45,2.61-1.48,2.84c-.69.16-1.52-2-2-1.61s-.24,2.42-.94,3c-.53.48-1.58-1.14-1.82-.85s1,2,.14,2.72C533.13,136.13,532.18,135.23,532.17,135.22Z" transform="translate(-19.92 -28.44)"/><path class="cls-7" d="M548.26,135.11c1.49,1.71,1.23,3.94-.55,3.85-1.35,0-3.57-1.11-5.1-1-3.35.12-6,1.61-6.71,0-.59-1.3,1.61-3.73,3.12-3.77a7.09,7.09,0,0,1,1.73,0c0,.06.54-1.56,3.5-1.28A7,7,0,0,1,548.26,135.11Z" transform="translate(-19.92 -28.44)"/><path class="cls-3" d="M525.06,126.32a1.56,1.56,0,0,1-.87,2,1.43,1.43,0,0,1-1.91-.83,1.54,1.54,0,0,1,.89-2A1.42,1.42,0,0,1,525.06,126.32Z" transform="translate(-19.92 -28.44)"/><path class="cls-3" d="M529.65,118.72a3.65,3.65,0,0,1-2,4.67,3.59,3.59,0,0,1-4.69-2.12,3.65,3.65,0,0,1,2.16-4.69A3.6,3.6,0,0,1,529.65,118.72Z" transform="translate(-19.92 -28.44)"/><path class="cls-3" d="M530.27,113.34a1.24,1.24,0,0,1-.72,1.63,1.3,1.3,0,0,1-1.65-.79,1.25,1.25,0,0,1,.74-1.64A1.31,1.31,0,0,1,530.27,113.34Z" transform="translate(-19.92 -28.44)"/><path class="cls-3" d="M535.64,108.1a1.92,1.92,0,0,1-1.1,2.54,2.1,2.1,0,0,1-2.59-1.3,1.91,1.91,0,0,1,1.13-2.55A2.11,2.11,0,0,1,535.64,108.1Z" transform="translate(-19.92 -28.44)"/><path class="cls-3" d="M540.87,105.48a1.06,1.06,0,0,1-.59,1.43,1.19,1.19,0,0,1-1.45-.75,1.06,1.06,0,0,1,.61-1.43A1.18,1.18,0,0,1,540.87,105.48Z" transform="translate(-19.92 -28.44)"/><path class="cls-3" d="M547,105.91a1.4,1.4,0,0,1-.73,1.87,1.52,1.52,0,0,1-1.85-1,1.39,1.39,0,0,1,.74-1.88A1.53,1.53,0,0,1,547,105.91Z" transform="translate(-19.92 -28.44)"/><path class="cls-3" d="M526.44,134.37a1.92,1.92,0,0,1-1,2.36,1.62,1.62,0,0,1-2.23-.91,1.91,1.91,0,0,1,1-2.36A1.61,1.61,0,0,1,526.44,134.37Z" transform="translate(-19.92 -28.44)"/><path class="cls-3" d="M528.76,139.53a1.09,1.09,0,0,1-.54,1.32.85.85,0,0,1-1.2-.48,1.08,1.08,0,0,1,.54-1.32A.86.86,0,0,1,528.76,139.53Z" transform="translate(-19.92 -28.44)"/><path class="cls-3" d="M533.26,143.33a.81.81,0,0,1-.38,1A.62.62,0,0,1,532,144a.81.81,0,0,1,.39-1A.61.61,0,0,1,533.26,143.33Z" transform="translate(-19.92 -28.44)"/><path class="cls-3" d="M561.1,132.64a1.3,1.3,0,0,1-.47,1.6,1,1,0,0,1-1.35-.63,1.27,1.27,0,0,1,.48-1.6A1,1,0,0,1,561.1,132.64Z" transform="translate(-19.92 -28.44)"/><path class="cls-3" d="M563.43,126a2.12,2.12,0,0,1-.78,2.66,1.7,1.7,0,0,1-2.3-1.12,2.11,2.11,0,0,1,.81-2.67A1.7,1.7,0,0,1,563.43,126Z" transform="translate(-19.92 -28.44)"/><path class="cls-3" d="M562.69,122a.48.48,0,0,1-.18.6.4.4,0,0,1-.52-.27.46.46,0,0,1,.18-.59A.4.4,0,0,1,562.69,122Z" transform="translate(-19.92 -28.44)"/><path class="cls-3" d="M560.78,115.45a.81.81,0,0,1-.33,1,.75.75,0,0,1-1-.5.81.81,0,0,1,.34-1.06A.76.76,0,0,1,560.78,115.45Z" transform="translate(-19.92 -28.44)"/><path class="cls-6" d="M533.61,122.23s-3.41.07-3,2.64,2,5,5,4.41S537,123.09,533.61,122.23Z" transform="translate(-19.92 -28.44)"/><path class="cls-8" d="M534.58,124.79a1.86,1.86,0,0,1-1,2.35,1.68,1.68,0,0,1-2.24-1,1.85,1.85,0,0,1,1-2.36A1.69,1.69,0,0,1,534.58,124.79Z" transform="translate(-19.92 -28.44)"/><path class="cls-6" d="M545.14,119.58a2.43,2.43,0,0,0-1.7,3.32c1,2.59,2.86,3.46,4.85,2S548.24,118.66,545.14,119.58Z" transform="translate(-19.92 -28.44)"/><path class="cls-8" d="M546.41,121.65a1.72,1.72,0,0,1-.8,2.19,1.55,1.55,0,0,1-2-1,1.72,1.72,0,0,1,.82-2.2A1.55,1.55,0,0,1,546.41,121.65Z" transform="translate(-19.92 -28.44)"/><path class="cls-8" d="M537,124.58s-11.81-.59-11.54-1,3.41-4.53,3.41-4.53l8.24,4.49Z" transform="translate(-19.92 -28.44)"/><polygon class="cls-8" points="521.62 93.64 522.65 94.04 530.75 88.43 525.34 86.44 521.62 93.64"/><path class="cls-4" d="M567.94,136a1.5,1.5,0,0,1-.48,1.81,1,1,0,0,1-1.47-.68,1.46,1.46,0,0,1,.49-1.81A1,1,0,0,1,567.94,136Z" transform="translate(-19.92 -28.44)"/><path class="cls-4" d="M569.2,127.75a.65.65,0,0,1-.22.82c-.25.14-.55,0-.68-.34a.65.65,0,0,1,.22-.82A.51.51,0,0,1,569.2,127.75Z" transform="translate(-19.92 -28.44)"/><path class="cls-4" d="M564.93,110.73a1.93,1.93,0,0,1-.78,2.57,1.87,1.87,0,0,1-2.34-1.28,1.92,1.92,0,0,1,.81-2.57A1.88,1.88,0,0,1,564.93,110.73Z" transform="translate(-19.92 -28.44)"/><path class="cls-4" d="M569.06,117.22a1.87,1.87,0,0,1-.67,2.4,1.63,1.63,0,0,1-2.1-1.11,1.86,1.86,0,0,1,.7-2.41A1.64,1.64,0,0,1,569.06,117.22Z" transform="translate(-19.92 -28.44)"/><path class="cls-4" d="M558.59,144.79a1.64,1.64,0,0,1-.57,2,1.1,1.1,0,0,1-1.6-.67,1.67,1.67,0,0,1,.58-2A1.1,1.1,0,0,1,558.59,144.79Z" transform="translate(-19.92 -28.44)"/><path class="cls-4" d="M547.61,147.42a1.49,1.49,0,0,1-.58,1.78,1,1,0,0,1-1.49-.59,1.48,1.48,0,0,1,.6-1.78A1,1,0,0,1,547.61,147.42Z" transform="translate(-19.92 -28.44)"/><path class="cls-4" d="M553.18,102a.49.49,0,0,1-.24.66.55.55,0,0,1-.64-.36.48.48,0,0,1,.24-.66A.55.55,0,0,1,553.18,102Z" transform="translate(-19.92 -28.44)"/><path class="cls-4" d="M558.56,104.26a1.63,1.63,0,0,1-.75,2.21,1.75,1.75,0,0,1-2.12-1.18,1.63,1.63,0,0,1,.78-2.22A1.77,1.77,0,0,1,558.56,104.26Z" transform="translate(-19.92 -28.44)"/><path class="cls-4" d="M562,106.45a1.3,1.3,0,0,1-.57,1.75,1.33,1.33,0,0,1-1.63-.91,1.29,1.29,0,0,1,.57-1.75A1.35,1.35,0,0,1,562,106.45Z" transform="translate(-19.92 -28.44)"/><ellipse class="cls-2" cx="417.85" cy="381.49" rx="44.4" ry="5.67"/><path class="cls-2" d="M540.75,406.6c0,1.57-9.43,2.84-21.06,2.84s-21.05-1.27-21.05-2.84,9.43-2.85,21.05-2.85S540.75,405,540.75,406.6Z" transform="translate(-19.92 -28.44)"/><ellipse class="cls-2" cx="585.36" cy="381.49" rx="35.92" ry="6.3"/><path class="cls-2" d="M322.59,50.76a3.57,3.57,0,0,0,4.58.9,50.78,50.78,0,0,1,5.26,7.4,19.75,19.75,0,0,0-1.55,2,35.26,35.26,0,0,0-2.32,3.91c-.35.67-.68,1.35-1,2l.19-.46s-4.95-.69-13.11-4.57a4.71,4.71,0,1,0-.51,1.16,61.4,61.4,0,0,1,12.41,6.27l.13-.32a23.89,23.89,0,0,0-.91,2.79c-.1.39-.18.79-.26,1.18s-.13.8-.18,1.2a15.53,15.53,0,0,0-.09,2.36l-.26-.71a30.45,30.45,0,0,1-7.66,3.38,2.85,2.85,0,1,0,.25.72,38,38,0,0,1,7.75-2.29,18.32,18.32,0,0,0,1.8,6.24h0c.18.36.37.72.58,1.08l.19.32c.15.25.3.49.46.73l-1-.9a38.7,38.7,0,0,1-6.38,8.35,3.55,3.55,0,1,0,.72.64,46.51,46.51,0,0,1,7.25-7.3c.08.12.18.23.27.35l.16.21a19.32,19.32,0,0,0,1.78,2l.05,0c.31.3.64.59,1,.87l0,0a19.32,19.32,0,0,0,3.28,2.19,45.82,45.82,0,0,1-1.1,5.49,3,3,0,1,0,.8.19A45.17,45.17,0,0,1,336.4,93a18.83,18.83,0,0,0,4.32,1.4,20.26,20.26,0,0,0,4.62.33,40.47,40.47,0,0,1,2.08,6.28,3,3,0,1,0,.77-.22,43.63,43.63,0,0,1-1.61-6.15A22.62,22.62,0,0,0,356.69,91a53.77,53.77,0,0,1,4.08,4,3.56,3.56,0,1,0,.69-.68,53.82,53.82,0,0,1-3.87-3.92A21.47,21.47,0,0,0,360.4,88a20.55,20.55,0,0,0,3.68-5.26c1.25.42,2.69,1,4.3,1.65a3.54,3.54,0,1,0,.35-.9c-1.11-.37-2.62-.93-4.25-1.63a18.33,18.33,0,0,0,1.41-10.12,31.38,31.38,0,0,1,3.45.12,2.24,2.24,0,0,0,2.13,2.08,2.25,2.25,0,1,0-2.1-2.68c-.9,0-2.21,0-3.61-.2-.06-.32-.13-.63-.21-.94,0-.09-.06-.18-.08-.27-.09-.3-.18-.6-.29-.9a12.16,12.16,0,0,0-.46-1.13v0a21.25,21.25,0,0,0-3.64-5.22l-.45-.49h0a42.85,42.85,0,0,1,6.89-6.84,3.58,3.58,0,1,0-.63-.73,49.25,49.25,0,0,1-7.7,6.11A29.56,29.56,0,0,0,354.79,57a22.43,22.43,0,0,0-2.91-1.62,32.31,32.31,0,0,1,1.8-5.86,2.52,2.52,0,1,0-.63-.24,35.53,35.53,0,0,1-2.28,5.64,17.09,17.09,0,0,0-2.85-.87,16.71,16.71,0,0,0-5.91-.14,57.58,57.58,0,0,1-1.66-8.56,4.16,4.16,0,1,0-1.1.16,63,63,0,0,1,1.16,8.72c-.54.14-1.07.3-1.6.49a14,14,0,0,0-1.74.75A15.05,15.05,0,0,0,334.63,57c-.25.19-.5.4-.74.61l-.21.19a46.63,46.63,0,0,1-5.75-6.71,3.58,3.58,0,1,0-5.34-.32Z" transform="translate(-19.92 -28.44)"/><path class="cls-2" d="M67.78,156.41a4,4,0,0,0-2.28-4.62,54.9,54.9,0,0,1,2.94-9.59,21.34,21.34,0,0,0,2.77,0,39.29,39.29,0,0,0,5-.59c.82-.15,1.64-.31,2.46-.5l-.53.14s2.72,4.81,4.81,14.58a5.23,5.23,0,1,0,1.37-.33,67.25,67.25,0,0,1-2.85-15.11l-.37.1a28.23,28.23,0,0,0,3-1.08c.41-.18.82-.37,1.22-.57s.79-.41,1.17-.64a16.92,16.92,0,0,0,2.12-1.51l-.44.7a33.75,33.75,0,0,1,8.12,4.45,3.16,3.16,0,1,0,.47-.71,41.87,41.87,0,0,1-7.23-5.25,20.13,20.13,0,0,0,4.26-5.78h0c.2-.4.39-.82.56-1.24l.15-.39c.12-.29.23-.59.33-.89l-.1,1.51s4.1-.82,11.62,0a3.93,3.93,0,1,0,.08-1.06,51.49,51.49,0,0,1-11.28-1.45c0-.15.09-.31.13-.47s.05-.19.07-.28A21.15,21.15,0,0,0,95.9,123v-.06c0-.48.08-1,.1-1.45v0a22,22,0,0,0-.28-4.35,50,50,0,0,1,5.56-2.73,3.33,3.33,0,1,0-.38-.82,52.84,52.84,0,0,1-5.41,2.42,20.88,20.88,0,0,0-1.68-4.73A22.29,22.29,0,0,0,91,106.9a45.46,45.46,0,0,1,4.11-6,3.31,3.31,0,1,0-.71-.54,49.44,49.44,0,0,1-4.31,5.56,24.88,24.88,0,0,0-10-6.45,59.78,59.78,0,0,1,.74-6.26,4,4,0,1,0-1-.15c-.14,1.53-.4,3.71-.84,6a22.72,22.72,0,0,0-11.11-.52c-.48-1.38-1-3-1.45-4.88a3.94,3.94,0,1,0-1,.29c.42,1.23,1,2.93,1.43,4.82A20.33,20.33,0,0,0,57,104.35c-.65-.83-1.4-1.83-2.21-3.1a2.46,2.46,0,1,0-.55.38c.6.79,1.44,2,2.25,3.29-.23.27-.46.54-.68.82l-.18.25c-.21.28-.41.56-.6.86s-.47.76-.68,1.16l0,0a23.75,23.75,0,0,0-2.13,6.71c0,.24-.09.48-.13.72h0A47.66,47.66,0,0,1,41.44,114a3.93,3.93,0,1,0-.21,1,53,53,0,0,1,10.54,2.64,32.7,32.7,0,0,0-.18,6.24,23.45,23.45,0,0,0,.54,3.65A36,36,0,0,1,45.78,130a2.73,2.73,0,1,0,.22.7,39.94,39.94,0,0,1,6.47-1.79A20.94,20.94,0,0,0,53.62,132a18.49,18.49,0,0,0,3.86,5.27,64,64,0,0,1-6.4,7.22,4.56,4.56,0,1,0,.89.85,68.79,68.79,0,0,1,6.87-6.88,17.71,17.71,0,0,0,1.5,1.07,18.25,18.25,0,0,0,1.83,1,17.08,17.08,0,0,0,3,1.11c.34.09.69.18,1,.25l.3,0a51,51,0,0,1-2,9.56,4,4,0,1,0,3.31,4.9Z" transform="translate(-19.92 -28.44)"/><circle class="cls-2" cx="113.3" cy="49.17" r="14.91"/><circle class="cls-2" cx="207.27" cy="67.54" r="8.58" transform="translate(-6.97 137.9) rotate(-45)"/><circle class="cls-2" cx="405.33" cy="56.22" r="8.99" transform="translate(264.81 418.81) rotate(-80.76)"/><circle class="cls-2" cx="640.72" cy="41.73" r="23.73"/><circle class="cls-2" cx="658.61" cy="98.52" r="10.5"/><circle class="cls-2" cx="616.59" cy="348.21" r="15.78"/><circle class="cls-2" cx="635.05" cy="298.75" r="7.84"/><circle class="cls-2" cx="44.39" cy="238.62" r="17.81" transform="translate(-175.65 72.83) rotate(-45)"/><circle class="cls-2" cx="35.03" cy="281.08" r="6.43"/><path class="cls-9" d="M531.71,373.19a3,3,0,0,0-3.68-1.36,42,42,0,0,1-3.38-6.85,16.11,16.11,0,0,0,1.55-1.43,29.48,29.48,0,0,0,2.45-2.93c.38-.51.75-1,1.11-1.56l-.22.35s4,1.24,10.28,5.56a4,4,0,1,0,.58-.9,51.37,51.37,0,0,1-9.47-6.87l-.16.24a19.74,19.74,0,0,0,1.13-2.19c.14-.31.26-.63.38-.95s.22-.64.31-1a14.32,14.32,0,0,0,.39-1.95l.12.62a26,26,0,0,1,6.82-1.78,2.4,2.4,0,0,0,4.65-1.17,2.4,2.4,0,0,0-4.76.53,31.58,31.58,0,0,1-6.75.87,15.41,15.41,0,0,0-.66-5.42h0c-.11-.33-.22-.65-.34-1l-.12-.29c-.09-.22-.19-.45-.29-.67l.74.89a32.2,32.2,0,0,1,6.42-6.08,3,3,0,1,0-.51-.63,39.53,39.53,0,0,1-7,5.09l-.18-.32c0-.07-.07-.14-.1-.2a18.68,18.68,0,0,0-1.23-1.86l0,0c-.22-.29-.46-.58-.7-.85l0,0a16.82,16.82,0,0,0-2.43-2.26,35.19,35.19,0,0,1,1.65-4.42,2.55,2.55,0,1,0-.64-.26,39.51,39.51,0,0,1-1.73,4.17,16,16,0,0,0-3.4-1.74,16.69,16.69,0,0,0-3.8-.89,34,34,0,0,1-.89-5.5,2.49,2.49,0,1,0-.67.08,37.12,37.12,0,0,1,.52,5.32,19.16,19.16,0,0,0-8.88,1.63,44.94,44.94,0,0,1-2.86-3.85,3,3,0,1,0-.66.47c.72.92,1.72,2.26,2.69,3.78a18.3,18.3,0,0,0-2.66,1.64,17.27,17.27,0,0,0-3.76,3.88c-1-.51-2.11-1.15-3.36-1.94a3,3,0,0,0-5.37-2.71,3,3,0,0,0,5,3.4c.87.47,2.06,1.13,3.31,1.93a15.57,15.57,0,0,0-2.53,8.22,26.44,26.44,0,0,1-2.84-.56,1.88,1.88,0,1,0-.11.5,29.4,29.4,0,0,1,3,.64c0,.27,0,.54.05.81,0,.08,0,.16,0,.24,0,.26.06.52.11.78s.14.67.23,1v0a18,18,0,0,0,2.32,4.82l.31.47h0a37,37,0,0,1-6.65,4.77,3,3,0,1,0,.43.68,40,40,0,0,1,7.22-4,25,25,0,0,0,3.16,3.55,17.54,17.54,0,0,0,2.21,1.73,27.65,27.65,0,0,1-2.28,4.64,2.1,2.1,0,1,0,.49.28,29.28,29.28,0,0,1,2.64-4.38,16.33,16.33,0,0,0,2.26,1.11,14.19,14.19,0,0,0,4.89.9,48.22,48.22,0,0,1,.23,7.34,3.49,3.49,0,1,0,.94,0,53,53,0,0,1,.2-7.41c.47,0,.93-.1,1.4-.18a14.06,14.06,0,0,0,1.55-.39,13.08,13.08,0,0,0,2.22-.94c.24-.13.47-.26.7-.41l.2-.13a39,39,0,0,1,3.88,6.35,3,3,0,1,0,4.39,1Z" transform="translate(-19.92 -28.44)"/><path class="cls-9" d="M656.7,145.66a2.67,2.67,0,0,0-2.32,2.57,38.1,38.1,0,0,1-6.71.53A13,13,0,0,0,647,147a25.46,25.46,0,0,0-1.6-3c-.29-.48-.6-1-.91-1.42l.21.3a37.47,37.47,0,0,1,7.91-6.6,3.48,3.48,0,1,0-.55-.77,44.57,44.57,0,0,1-8.71,5.5l.15.21a17.32,17.32,0,0,0-1.43-1.64l-.65-.62q-.33-.3-.69-.57a11.5,11.5,0,0,0-1.47-.95l.55.1a22.7,22.7,0,0,1,.77-6.16,2.09,2.09,0,1,0-.55-.11,28.19,28.19,0,0,1-1.5,5.79,13.82,13.82,0,0,0-4.65-1.23h0l-.91,0h-.28l-.64,0,1-.31a28.83,28.83,0,0,1-2.88-7.24,2.64,2.64,0,1,0-.68.21,34.58,34.58,0,0,1,1.88,7.39l-.32,0-.2,0a15.93,15.93,0,0,0-1.92.39h0q-.47.13-.93.3h0a13.54,13.54,0,0,0-2.64,1.25,33.35,33.35,0,0,1-3.07-2.8,2.26,2.26,0,1,0-.43.44,34.86,34.86,0,0,1,2.85,2.77,14.4,14.4,0,0,0-2.54,2.22,14.75,14.75,0,0,0-2,2.81,29.83,29.83,0,0,1-4.79-1.07,2.19,2.19,0,1,0-.15.57,34.11,34.11,0,0,1,4.52,1.32,16.84,16.84,0,0,0-1.57,7.8c-1.09.35-2.45.73-4.08,1.08a2.63,2.63,0,1,0,.17.69c1-.29,2.41-.67,4-1a17,17,0,0,0,.48,2.72,15.2,15.2,0,0,0,1.94,4.34c-.74.64-1.64,1.35-2.69,2.11a2.65,2.65,0,0,0-3.52-.23,2.66,2.66,0,1,0,4,.8c.66-.57,1.59-1.32,2.65-2.08a13.67,13.67,0,0,0,5.9,4.75,24.78,24.78,0,0,1-1.39,2.15,1.66,1.66,0,1,0,.37.25c.35-.57.88-1.39,1.5-2.22.23.08.45.16.68.22l.21,0c.22.06.45.12.67.16s.6.11.9.14h0a15.77,15.77,0,0,0,4.71-.32l.48-.1h0a32.39,32.39,0,0,1,1.72,7,2.66,2.66,0,1,0,.71-.12,36,36,0,0,1-1-7.22,22.52,22.52,0,0,0,3.94-1.43,16.79,16.79,0,0,0,2.14-1.24,24.15,24.15,0,0,1,3,3.38,1.85,1.85,0,1,0,2.76.1,1.84,1.84,0,0,0-2.37-.41,26.25,26.25,0,0,1-2.72-3.6,13.54,13.54,0,0,0,1.65-1.48,12,12,0,0,0,2.33-3.7,43.11,43.11,0,0,1,6.08,2.21,3.1,3.1,0,1,0,.32-.76,46.59,46.59,0,0,1-6-2.59q.18-.6.3-1.2a13.08,13.08,0,0,0,.19-1.4,11.57,11.57,0,0,0,0-2.12c0-.24-.06-.48-.1-.71,0-.07,0-.14,0-.2a34.56,34.56,0,0,1,6.46-1.1,2.65,2.65,0,1,0,2.24-3.28Z" transform="translate(-19.92 -28.44)"/><path class="cls-2" d="M714.43,328.25a2.58,2.58,0,0,0-3.14-1.17,35.59,35.59,0,0,1-2.89-5.84,13.92,13.92,0,0,0,1.32-1.22,24.82,24.82,0,0,0,2.09-2.51c.33-.43.64-.88,1-1.33l-.19.3a36.35,36.35,0,0,1,8.77,4.75,3.39,3.39,0,1,0,.5-.77,44,44,0,0,1-8.08-5.86l-.13.21c.35-.62.68-1.24,1-1.87.11-.27.22-.54.32-.82a7.81,7.81,0,0,0,.26-.82,10.87,10.87,0,0,0,.34-1.66l.1.53a21.76,21.76,0,0,1,5.82-1.52,2,2,0,1,0-.1-.55,26.62,26.62,0,0,1-5.75.74,13.28,13.28,0,0,0-.57-4.62h0c-.09-.28-.19-.56-.29-.83,0-.09-.07-.17-.1-.25s-.16-.39-.25-.57l.63.75a27.79,27.79,0,0,1,5.48-5.19,2.58,2.58,0,1,0-.43-.54,33.16,33.16,0,0,1-6,4.35l-.15-.28-.09-.16a15,15,0,0,0-1-1.59l0,0c-.19-.25-.39-.5-.6-.73v0a13.6,13.6,0,0,0-2.08-1.93,32.45,32.45,0,0,1,1.41-3.77A2.19,2.19,0,1,0,710,290.5a2.18,2.18,0,0,0,.94,2.69,36.12,36.12,0,0,1-1.48,3.56,13.27,13.27,0,0,0-2.91-1.48,13.83,13.83,0,0,0-3.23-.76,28.59,28.59,0,0,1-.76-4.69,2.16,2.16,0,1,0-.57.06,32.4,32.4,0,0,1,.44,4.55,16.22,16.22,0,0,0-7.58,1.39,39.83,39.83,0,0,1-2.44-3.29,2.56,2.56,0,1,0-.56.4c.61.78,1.47,1.93,2.29,3.22a15.83,15.83,0,0,0-2.27,1.41,15,15,0,0,0-3.21,3.31c-.84-.44-1.8-1-2.86-1.66a2.57,2.57,0,0,0-4.58-2.31,2.57,2.57,0,0,0,4.23,2.9c.74.39,1.75,1,2.82,1.64a13.34,13.34,0,0,0-2.15,7,23.88,23.88,0,0,1-2.43-.48,1.61,1.61,0,1,0-.09.42c.64.11,1.56.29,2.53.56,0,.23,0,.45,0,.68a1.52,1.52,0,0,0,0,.21c0,.22,0,.44.09.67s.12.57.2.85v0a15.37,15.37,0,0,0,2,4.12l.26.4h0a31.21,31.21,0,0,1-5.67,4.07,2.58,2.58,0,1,0,.36.59,34.23,34.23,0,0,1,6.16-3.45,21.79,21.79,0,0,0,2.7,3,15.6,15.6,0,0,0,1.88,1.47,23.5,23.5,0,0,1-1.94,4,1.79,1.79,0,1,0,.42.24,25.21,25.21,0,0,1,2.25-3.74,13.29,13.29,0,0,0,1.93.95,12.29,12.29,0,0,0,4.17.77,41.4,41.4,0,0,1,.2,6.26,3,3,0,1,0,.8,0,44.54,44.54,0,0,1,.17-6.32,11.74,11.74,0,0,0,1.19-.16q.68-.13,1.32-.33a10.92,10.92,0,0,0,1.9-.8l.6-.35.17-.11a33.49,33.49,0,0,1,3.31,5.41,2.57,2.57,0,1,0,3.75.84Z" transform="translate(-19.92 -28.44)"/><path class="cls-9" d="M338.12,351.91a4,4,0,0,0-4.9-1.81,56.22,56.22,0,0,1-4.49-9.1,24.66,24.66,0,0,0,2.06-1.9,40.09,40.09,0,0,0,3.25-3.91c.51-.67,1-1.37,1.48-2.07l-.3.47s5.34,1.65,13.67,7.39a5.25,5.25,0,1,0,.77-1.2,68.55,68.55,0,0,1-12.59-9.13l-.2.32a28.52,28.52,0,0,0,1.49-2.91q.27-.63.51-1.26c.15-.43.29-.86.41-1.29a18,18,0,0,0,.52-2.59l.15.83a34,34,0,0,1,9.07-2.37,3.18,3.18,0,1,0-.15-.85,42,42,0,0,1-9,1.16,20.51,20.51,0,0,0-.88-7.21h0c-.13-.44-.29-.87-.45-1.3-.05-.13-.1-.26-.16-.39-.12-.3-.24-.6-.38-.89l1,1.18s2.45-3.45,8.54-8.09a4,4,0,1,0-.68-.84,51.74,51.74,0,0,1-9.31,6.78c-.07-.15-.15-.29-.23-.44s-.09-.17-.14-.26a21,21,0,0,0-1.63-2.46l0-.06q-.45-.58-.93-1.14l0,0a20.93,20.93,0,0,0-3.23-3,48.91,48.91,0,0,1,2.2-5.88,3.42,3.42,0,1,0-.85-.35,55.08,55.08,0,0,1-2.3,5.55,21,21,0,0,0-4.53-2.32,22.26,22.26,0,0,0-5.05-1.18,45.78,45.78,0,0,1-1.17-7.31,3.33,3.33,0,1,0-.89.1,49.64,49.64,0,0,1,.68,7.08,25.38,25.38,0,0,0-11.8,2.17,59.48,59.48,0,0,1-3.8-5.12,4,4,0,1,0-.88.62c1,1.22,2.29,3,3.58,5A25.12,25.12,0,0,0,303,304.1a23.23,23.23,0,0,0-5,5.16c-1.31-.69-2.81-1.54-4.46-2.59a4,4,0,1,0-.55.92c1.16.62,2.73,1.5,4.4,2.56A20.58,20.58,0,0,0,294,321.08a36.82,36.82,0,0,1-3.78-.74,2.49,2.49,0,1,0-.14.66c1,.17,2.43.45,3.94.86,0,.36,0,.72.07,1.07,0,.11,0,.21,0,.32,0,.35.09.69.15,1s.19.89.31,1.33c0,0,0,0,0,0a23.89,23.89,0,0,0,3.09,6.41c.13.21.27.42.41.62h0a48.77,48.77,0,0,1-8.83,6.33,4,4,0,1,0,.57.92,54.09,54.09,0,0,1,9.59-5.37,34.59,34.59,0,0,0,4.21,4.72,24.91,24.91,0,0,0,2.93,2.3,36.75,36.75,0,0,1-3,6.16,2.79,2.79,0,1,0,.65.37,39.43,39.43,0,0,1,3.52-5.82,20.22,20.22,0,0,0,3,1.47,18.84,18.84,0,0,0,6.51,1.2,65,65,0,0,1,.3,9.76,4.63,4.63,0,1,0,1.25,0,70.72,70.72,0,0,1,.27-9.84c.62-.06,1.24-.14,1.86-.25s1.38-.31,2.06-.52a17.24,17.24,0,0,0,2.95-1.24c.32-.17.63-.35.94-.55l.26-.17a52,52,0,0,1,5.15,8.43,4,4,0,1,0,5.85,1.3Z" transform="translate(-19.92 -28.44)"/><path class="cls-10" d="M125.55,154s.56-6.86,2.46-8.76,22.6-1.28,23.88,0,2.49,9.79,2.49,9.79S137.41,151.75,125.55,154Z" transform="translate(-19.92 -28.44)"/><path class="cls-11" d="M153.53,160.59a7.35,7.35,0,0,0-6.36-8.09c-10.89-1.44-31-2.66-36.18,6.88-7.21,13.26-10.63,85.42-7.21,98.33s31.71,10.45,35.31,6.84C142.14,261.5,150.89,184.39,153.53,160.59Z" transform="translate(-19.92 -28.44)"/><path class="cls-12" d="M108.79,190.52h-4.23v3.32a14.59,14.59,0,0,0,0,12.17v3.31h4.23c3.07,0,5.55-4.21,5.55-9.4S111.86,190.52,108.79,190.52Z" transform="translate(-19.92 -28.44)"/><ellipse class="cls-11" cx="84.64" cy="171.48" rx="5.56" ry="9.4"/><path class="cls-12" d="M111.58,243.55h-2.94v2.31a10.16,10.16,0,0,0,0,8.45v2.3h2.94c2.13,0,3.86-2.92,3.86-6.53S113.71,243.55,111.58,243.55Z" transform="translate(-19.92 -28.44)"/><path class="cls-11" d="M112.5,250.08c0,3.61-1.73,6.53-3.86,6.53s-3.85-2.92-3.85-6.53,1.72-6.53,3.85-6.53S112.5,246.48,112.5,250.08Z" transform="translate(-19.92 -28.44)"/><path class="cls-12" d="M147.17,152.5a113.31,113.31,0,0,0-11.49-.94,19.6,19.6,0,0,0-11.5,13.14c-3,11.51-2.6,88.77-2.6,92.86,0,3.29-5.33,6.58-13.13,6.17,9.11,5.85,27.76,3.7,30.64.82,3-3.05,11.8-80.16,14.44-104A7.35,7.35,0,0,0,147.17,152.5Z" transform="translate(-19.92 -28.44)"/><path class="cls-6" d="M136.18,196.79v58c0,27.05-14.82,48.95-25.77,67s-36.07,32.85-36.07,43.8,24.08,17.23,33.42,14.65S142,350.73,149.7,343s29.44-36.71,29.44-36.71,31.11-.64,36.9,10.95-16.74,29.63-9,37.36,28.49,8.77,36.22,1,26.33-41.34,19.24-61.31-26.6-30.41-54.18-35.7c0,0,1.29-47,1.29-49.6s14.17,13.53,31.56,13.53,29.63-33.5,29.63-38.65S254,173.61,254,173.61s-9.66,20.61-15.45,14.81-24.48-21.9-30.92-21.9,16.1-27.69,5.15-50.24-33.17-20.93-45.08-9-9,40.58-12.89,44.45S129.09,168.45,136.18,196.79Z" transform="translate(-19.92 -28.44)"/><path class="cls-13" d="M139.78,262.52c-3.22-3.22-3.57-12.76-3.6-15.86v8.1c0,27.05-14.82,48.95-25.77,67s-36.07,32.85-36.07,43.8c0,5.57,6.9,9.93,14.89,12.54,8.48-.45,16.7-3.21,20.25-5.24,8-4.57-12-12.57-15.15-18.86s8.72-13.58,11.72-16.58,9.72,2.29,11.72,4.29-3.15-7.15-3.15-11.44,12,5.15,16.87,5.15-10.86-13.15-10.86-17.15,17.72-16,17.72-22.87-.57-18.29,1.71-24,37.45-6,44.12-8.86S143.64,266.38,139.78,262.52Z" transform="translate(-19.92 -28.44)"/><path class="cls-13" d="M224.67,352c-7.71-3.63-7.57-10.15-4-13.72s7.15-2.29,9.43-4.58-3-3.28-4.85-5.14,4.57-1.43,10.1-3.72-2.1-1.43-7.82-2.86-2.57-6-4.29-12.86-15.43-13.72-25.72-13.72-18.38,10.9-18.38,10.9,31.11-.64,36.9,10.95-16.74,29.63-9,37.36c6.19,6.19,20.73,8.08,30.25,4.61C240.71,353,232.38,355.61,224.67,352Z" transform="translate(-19.92 -28.44)"/><path class="cls-14" d="M215.51,125.15s-19,6-34.33,2.63c0,0-4.65,13.73-4.65,18.38s19.52,13.91,30.8,15.59C207.33,161.75,218.4,145.78,215.51,125.15Z" transform="translate(-19.92 -28.44)"/><path class="cls-15" d="M215.76,127.59c-5.64,10.84-13.31,20.62-19.86,31,1.25.46,2.49.89,3.72,1.28a64.19,64.19,0,0,0,7.06-6.93,80,80,0,0,0,6.74-9.74l2-3.12A52.25,52.25,0,0,0,215.76,127.59Z" transform="translate(-19.92 -28.44)"/><path class="cls-15" d="M195.54,152.41c1.67-2.22,3.12-4.6,4.57-7l11.77-19.31a97.3,97.3,0,0,1-11.73,2.12l-14.88,25.56c2,1.06,4.13,2.1,6.37,3.07A43.5,43.5,0,0,0,195.54,152.41Z" transform="translate(-19.92 -28.44)"/><path class="cls-15" d="M195,128.69a63.05,63.05,0,0,1-6.45,0q-6.1,9.06-11.72,18.45a11,11,0,0,0,3.4,3.49c4.48-7.42,9.5-14.51,14.51-21.59Z" transform="translate(-19.92 -28.44)"/><path class="cls-13" d="M262,176.63c-2.39,4.4-4.25,12.51-8,16.26-5.28,5.27-2.65,7.22-2.65,11.38s-3.41-3.78-9.46-6.5-.16,7.1-6,12.93-20.1-14-30.69-17.39-2,15.14-2,15.14,1.59,17.78,5.75,26.2c.32-12,.64-24.34.64-25.62,0-2.58,14.17,13.53,31.56,13.53s29.63-33.5,29.63-38.65C270.79,181.25,266.31,178.58,262,176.63Z" transform="translate(-19.92 -28.44)"/><path class="cls-16" d="M246.34,183.41s8.42,6.66,16,8.24,8.85.44,10.35-1.05,3-26.83,1.75-31.56-3.33-14.56-8.42-17-13.68-1.76-15.61,1.75-2.74,9.64.18,12.56,7.37,1.64,7.37,6S246.34,183.41,246.34,183.41Z" transform="translate(-19.92 -28.44)"/><path class="cls-13" d="M198.39,199.92c-6.92-6.93-7.75-13.23-3-18s13.47-10.2,13.48-15.28a5.92,5.92,0,0,0-1.18-.16,1,1,0,0,1-1-.53c-5.06,1.79-18.36,10.95-34.1,6.52-.64-.18-1.24-.38-1.85-.57-.24-.14-11-6.64-7.48-10.19s16.66.93,15.73,0-16.44-3.41-16.44-12.49S167.67,120,169.66,120s6.63,2.88,15.61,2.88-12.7-1.33-12.7-6.42,5.6-11.54,13.3-13.52c4.25-1.09,10.24-1,14.58-.85-11-6.46-24.39-3.18-32.71,5.14-11.92,11.92-9,40.58-12.89,44.45-.95.95-3,2.48-5.47,4.64h0l-.38.35-.66.6c-.32.29-.64.6-1,.91l-.66.64L145.6,160c-.19.2-.37.38-.55.58-.56.61-1.11,1.24-1.65,1.9l0,0h0c-6,7.31-11.19,18.36-7.2,34.31v20.67c.71.63,1.42,1.27,2.09,1.94,8.31,8.32,10.58,8.32,14.37,20s7.94,8,19.93,8,10.89,6.24,16.37,11.73c3.77,3.77,14.16-.33,19.54-6.7.16-5.6.39-14.14.6-22.19C206.68,218.68,203.25,204.77,198.39,199.92Z" transform="translate(-19.92 -28.44)"/><path class="cls-17" d="M206.67,166s5.76,26.94,1.94,47.74c0,0,6.3.24,7.38-.85s3-29.61,0-40.75S206.67,166,206.67,166Z" transform="translate(-19.92 -28.44)"/><path class="cls-17" d="M142.92,156.88s14.7-4.24,20.45,15.9S131,234.65,131,234.65V247.9s36.29-34.54,40.92-59.43S161,151.71,154.85,151.71,142.92,156.88,142.92,156.88Z" transform="translate(-19.92 -28.44)"/><path class="cls-6" d="M145.84,156.22s11.59-1.94,18,18,12.24,26.41,16.1,30.27,44.12.32,49.6,5.8,11,20,0,23.83-47.66,9.34-65.7.32-24-29.26-29.07-44.42S136.82,156.22,145.84,156.22Z" transform="translate(-19.92 -28.44)"/><path class="cls-17" d="M82.9,349.26s3.5,10.42,18.46,14.43,26.19,2.94,26.19,5.08S78,397.46,82.9,402.4s26.38,6.7,26.38,16-71.16,12.9-66.52-5.67S82.9,349.26,82.9,349.26Z" transform="translate(-19.92 -28.44)"/><path class="cls-18" d="M127.55,368.77c0-2.14-11.22-1.07-26.19-5.08-.93-.25-1.82-.53-2.67-.82-7.3,6.27-29.55,26.31-28.39,36.35,1.27,11,21.36,15.79,35.35,13.3C99.32,408,86.57,406.06,82.9,402.4,78,397.46,127.55,370.9,127.55,368.77Z" transform="translate(-19.92 -28.44)"/><path class="cls-17" d="M205.87,343.92a25.49,25.49,0,0,0,16.56,10.83c18,3.07,24.24-3.09,25.5-1.83,2.29,2.29-27.56,38.88-27.56,42.3s17.56,4.58,22.2,18S185.65,418,184.5,411C181.13,390.43,205.87,343.92,205.87,343.92Z" transform="translate(-19.92 -28.44)"/><path class="cls-18" d="M247.93,352.92c-1.2-1.2-6.94,4.34-23.15,2.17-6.42,8.55-22.17,31-17.92,40.44,4.62,10.23,21.95,15.74,34,14.13-6.2-10.08-20.47-11.36-20.47-14.44C220.37,391.8,250.22,355.21,247.93,352.92Z" transform="translate(-19.92 -28.44)"/><path class="cls-10" d="M242.74,414c-12.73,5.57-43.65-.44-47.42-4.21-4.19-4.19-3.09-14.76,3.52-33.91a52,52,0,0,1,16.94-23.34,25.66,25.66,0,0,1-9.91-8.65s-24.74,46.51-21.37,67C185.62,417.8,244.53,426.23,242.74,414Z" transform="translate(-19.92 -28.44)"/><path class="cls-13" d="M235.86,224.35a28.43,28.43,0,0,1-5.7,4.13c-11,5.91-21.18,3.78-37.06,0s-6.19-5.91-8.6-8.32-7.66,1.51-9.93,1.51-2-5.67-2-9.83-4.81.75-7.83,3.78-12.48-6.81-23.45-27.61c-6-11.41-4.86-21.1-2.59-27.53-5,6.38-7.48,18.84-3.9,29.57,5.07,15.16,11,35.4,29.07,44.42s54.75,3.55,65.7-.32C234.46,232.42,236.06,228.57,235.86,224.35Z" transform="translate(-19.92 -28.44)"/><path class="cls-19" d="M282.53,107.89,219,151.13s15.27,57,25.67,82C255.15,258.37,307,287.54,307,287.54s40.47-39.4,44.3-66c3.8-26.35,4.06-83.27,4.06-83.27Z" transform="translate(-19.92 -28.44)"/><path class="cls-19" d="M290.26,102.63l-63.44,43.16s14.72,55.68,25.14,80.63c10.52,25.17,61.16,54.7,61.16,54.7s41.48-39.71,45.28-66.27c3.75-26.27,3.93-83,3.93-83Z" transform="translate(-19.92 -28.44)"/><path class="cls-19" d="M311.75,270.42c-15.94-10-45.3-30.92-52.13-47.2-8.19-19.53-19.37-59.34-23.35-73.89l55.15-37.63,62.75,25.44c-.18,14.87-.95,55.64-3.92,76.24C347.76,230.58,324.69,257.21,311.75,270.42Z" transform="translate(-19.92 -28.44)"/><path class="cls-19" d="M311.06,265c-19.23-12.37-42.18-30.44-47.61-43.37-7.57-18-17.74-53.53-22.45-70.53l51-34.84,58.08,23.55c-.27,17.39-1.15,53.83-3.91,72.85C344.18,226.31,326.58,248.77,311.06,265Z" transform="translate(-19.92 -28.44)"/><path class="cls-19" d="M304.93,121.49,292,116.25l-51,34.84c4.71,17,14.88,52.51,22.45,70.53,1.75,4.16,5.33,8.86,10,13.73a94.77,94.77,0,0,0,17.6-27.72C302.73,179.69,304.88,143.59,304.93,121.49Z" transform="translate(-19.92 -28.44)"/><path class="cls-12" d="M282.53,107.89,219,151.13s15.27,57,25.67,82C255.15,258.37,307,287.54,307,287.54s40.47-39.4,44.3-66c3.8-26.35,4.06-83.27,4.06-83.27Z" transform="translate(-19.92 -28.44)"/><path class="cls-14" d="M290.26,102.63l-63.44,43.16s14.72,55.68,25.14,80.63c10.52,25.17,61.16,54.7,61.16,54.7s41.48-39.71,45.28-66.27c3.75-26.27,3.93-83,3.93-83Z" transform="translate(-19.92 -28.44)"/><path class="cls-6" d="M311.75,270.42c-15.94-10-45.3-30.92-52.13-47.2-8.19-19.53-19.37-59.34-23.35-73.89l55.15-37.63,62.75,25.44c-.18,14.87-.95,55.64-3.92,76.24C347.76,230.58,324.69,257.21,311.75,270.42Z" transform="translate(-19.92 -28.44)"/><path class="cls-11" d="M311.06,265c-19.23-12.37-42.18-30.44-47.61-43.37-7.57-18-17.74-53.53-22.45-70.53l51-34.84,58.08,23.55c-.27,17.39-1.15,53.83-3.91,72.85C344.18,226.31,326.58,248.77,311.06,265Z" transform="translate(-19.92 -28.44)"/><path class="cls-14" d="M304.93,121.49,292,116.25l-51,34.84c4.71,17,14.88,52.51,22.45,70.53,1.75,4.16,5.33,8.86,10,13.73a94.77,94.77,0,0,0,17.6-27.72C302.73,179.69,304.88,143.59,304.93,121.49Z" transform="translate(-19.92 -28.44)"/><polygon class="cls-14" points="266.51 159.04 257.7 159.04 257.7 162.09 260.47 162.09 260.47 165.31 263.74 165.31 263.74 162.09 266.51 162.09 266.51 159.04"/><path class="cls-20" d="M166.22,343l-2.69,0c-26-.75-58.64-14.64-66.55-76.62-.72-5.6.26-10.11,2.89-13.42a13.63,13.63,0,0,1,8.57-4.86,2,2,0,0,1,.42,4.06,9.56,9.56,0,0,0-5.84,3.38c-1.89,2.42-2.56,5.89-2,10.33,6,46.79,27.63,72.05,62.63,73.05,41.58,1.16,46.76-25.36,50.94-46.69,1.13-5.8,2.11-10.8,3.75-14.75,3.7-8.92,9.14-15.6,14.4-22.06,5.47-6.71,10.63-13.05,13.38-21.36a2,2,0,1,1,3.87,1.28c-3,9-8.38,15.64-14.09,22.66-5.07,6.23-10.32,12.67-13.79,21-1.49,3.57-2.43,8.39-3.52,14C214.68,313,208.8,343,166.22,343Z" transform="translate(-19.92 -28.44)"/><path class="cls-20" d="M262.09,201.31a10.45,10.45,0,0,0,6.83-5.54,4.34,4.34,0,0,1,4-2.59h49.4v5.31s-27.24.75-28.23.75.4,5.78-5.13,7.56-9,.89-11.05,3S263.69,225.37,262.09,227s-2.77,13.12-6.85,13.12-14.68-3-13.87-5.45S262.09,201.31,262.09,201.31Z" transform="translate(-19.92 -28.44)"/><path class="cls-17" d="M212.7,207.11s4.64,2.21,7.73,12.33c2.18,7.15.25,14.32-1.07,17.92a1,1,0,0,0,1.4,1.33c7.81-3.41,32.12-13.91,33.13-12.9,1.2,1.2,10.81,2.06,14.93.17s8.2-8.45,8.2-11.37-6.49-13.52-10.09-14.67c-10.73-3.43-10.81,7.3-20.59,7.3S210.64,201.47,212.7,207.11Z" transform="translate(-19.92 -28.44)"/><path class="cls-10" d="M269,201.31c2.37,3.58,4.93,9.21,1.76,13.69-5.06,7.14-13.85-2.9-19.62,0s-7.54,9.82-16.48,11.39-10-11.56-15-16.53a36.87,36.87,0,0,0-5.87-4.71c-1,.38-1.51,1-1.16,2,0,0,4.64,2.21,7.73,12.33,2.18,7.15.25,14.32-1.07,17.92a1,1,0,0,0,1.4,1.33c7.81-3.41,32.12-13.91,33.13-12.9,1.2,1.2,10.81,2.06,14.93.17s8.2-8.45,8.2-11.37C277,212.19,272.6,204.55,269,201.31Z" transform="translate(-19.92 -28.44)"/><path class="cls-10" d="M52.39,408.06C48.6,402.64,77.11,368.18,87.47,356a19.73,19.73,0,0,1-4.57-6.72s-35.5,44.89-40.14,63.45,66.52,15,66.52,5.67a5.79,5.79,0,0,0-.5-2.35c-4.39.72-10.59,2.38-19,2.38C77.28,418.41,57,414.66,52.39,408.06Z" transform="translate(-19.92 -28.44)"/><path class="cls-10" d="M134.87,233.69c-.05-1.52-.75-3.55-2.82-3.55-1.56,0-5.51-.24-6.59.85-2.13,2.12-3,18.52,2.09,19s6.71-.76,7.22-4.14C135.15,243.43,135,237.43,134.87,233.69Z" transform="translate(-19.92 -28.44)"/><polygon class="cls-20" points="300.65 163.5 300.65 171.48 312.06 169.32 312.06 165.53 300.65 163.5"/><path class="cls-3" d="M444.29,127.62A13.28,13.28,0,1,0,429,140.69c.33,9.07.36,25.12-2.56,38.85h8.69s-3.63-13.51-2.57-38.8A13.23,13.23,0,0,0,444.29,127.62Z" transform="translate(-19.92 -28.44)"/><path class="cls-3" d="M487.68,158.66a10,10,0,1,0-14.91,3.09c-3.09,6.13-8.92,16.79-15.87,24.83l5.77,3.17s2.52-10.29,12.44-26.67A10,10,0,0,0,487.68,158.66Z" transform="translate(-19.92 -28.44)"/><path class="cls-3" d="M518.76,191.34a11.66,11.66,0,1,0-16.89-5.2c-6.58,4.51-18.47,12.09-30,16.38l4.08,6.45s8.33-9.05,27.58-20.16A11.62,11.62,0,0,0,518.76,191.34Z" transform="translate(-19.92 -28.44)"/><path class="cls-3" d="M514.65,233.46a7,7,0,1,0-7.38-7.63c-4.77.47-13.22,1-20.54-.07l.28,4.57s7-2.35,20.35-2.62A7,7,0,0,0,514.65,233.46Z" transform="translate(-19.92 -28.44)"/><path class="cls-3" d="M513.09,281.82a10,10,0,1,0-4-14.69c-6.32-2.7-17.32-7.86-25.77-14.29l-2.8,5.94s10.42,1.89,27.38,10.77A10,10,0,0,0,513.09,281.82Z" transform="translate(-19.92 -28.44)"/><path class="cls-3" d="M464,300.28a6.3,6.3,0,1,0,4.61-8.36,81,81,0,0,1-5.35-17.68l-3.86,1.45s3.87,5.4,7.62,16.8A6.29,6.29,0,0,0,464,300.28Z" transform="translate(-19.92 -28.44)"/><path class="cls-3" d="M425.21,314a10,10,0,1,0,11.2-10.31c-.51-6.85-1-19,.84-29.45l-6.57.24s3.12,10.12,3,29.27A10,10,0,0,0,425.21,314Z" transform="translate(-19.92 -28.44)"/><path class="cls-3" d="M386,301.76a10,10,0,1,0,14.42-4.91c2.3-6.47,6.77-17.77,12.66-26.61L407,267.81s-1.23,10.52-9,28A10,10,0,0,0,386,301.76Z" transform="translate(-19.92 -28.44)"/><path class="cls-3" d="M356.83,267.52a8.37,8.37,0,1,0,12.5,2.2c4.28-3.8,12.07-10.25,19.93-14.33l-3.49-4.23s-5.12,7.18-17.85,16.81A8.34,8.34,0,0,0,356.83,267.52Z" transform="translate(-19.92 -28.44)"/><path class="cls-3" d="M351.55,225.17a8.57,8.57,0,1,0,10.12,8.15c5.71-1.3,15.89-3.24,24.94-3l-1-5.51s-8.13,3.92-24.3,6.27A8.54,8.54,0,0,0,351.55,225.17Z" transform="translate(-19.92 -28.44)"/><path class="cls-3" d="M351.43,180a10,10,0,1,0,5.8,14.09c6.6,1.89,18.15,5.65,27.34,11l2-6.25s-10.57-.58-28.51-7.29A10,10,0,0,0,351.43,180Z" transform="translate(-19.92 -28.44)"/><path class="cls-3" d="M390.63,156A8,8,0,1,0,389.27,168c3.88,3.86,10.5,10.92,14.87,18.18l3.83-3.58s-7.16-4.46-17.11-16A8,8,0,0,0,390.63,156Z" transform="translate(-19.92 -28.44)"/><path class="cls-4" d="M350.75,190.66a4.44,4.44,0,1,1-4.44-4.44A4.44,4.44,0,0,1,350.75,190.66Z" transform="translate(-19.92 -28.44)"/><path class="cls-4" d="M383.86,163.19a1.75,1.75,0,1,1-1.74-1.75A1.74,1.74,0,0,1,383.86,163.19Z" transform="translate(-19.92 -28.44)"/><path class="cls-4" d="M436.33,127.94a6.48,6.48,0,1,1-6.47-6.48A6.48,6.48,0,0,1,436.33,127.94Z" transform="translate(-19.92 -28.44)"/><path class="cls-4" d="M479.61,154.22a3.89,3.89,0,1,1-3.89-3.88A3.89,3.89,0,0,1,479.61,154.22Z" transform="translate(-19.92 -28.44)"/><path class="cls-4" d="M514.14,178.67a5.09,5.09,0,1,1-5.08-5.09A5.09,5.09,0,0,1,514.14,178.67Z" transform="translate(-19.92 -28.44)"/><path class="cls-4" d="M517.4,226.5a3.18,3.18,0,1,1-3.18-3.19A3.18,3.18,0,0,1,517.4,226.5Z" transform="translate(-19.92 -28.44)"/><path class="cls-4" d="M521.62,270.5a3.74,3.74,0,1,1-3.74-3.74A3.74,3.74,0,0,1,521.62,270.5Z" transform="translate(-19.92 -28.44)"/><circle class="cls-4" cx="448.64" cy="269.78" r="2.78"/><path class="cls-4" d="M438.4,313.58a4.45,4.45,0,1,1-4.45-4.44A4.45,4.45,0,0,1,438.4,313.58Z" transform="translate(-19.92 -28.44)"/><path class="cls-4" d="M394.36,304a3,3,0,1,1-3-3A3,3,0,0,1,394.36,304Z" transform="translate(-19.92 -28.44)"/><path class="cls-4" d="M363.21,270.15a2.34,2.34,0,1,1-2.34-2.34A2.34,2.34,0,0,1,363.21,270.15Z" transform="translate(-19.92 -28.44)"/><path class="cls-4" d="M353.37,232a3.53,3.53,0,1,1-3.53-3.53A3.53,3.53,0,0,1,353.37,232Z" transform="translate(-19.92 -28.44)"/><path class="cls-4" d="M487.52,217.91c-2.25-9.41-5.38-19-10.88-27a54,54,0,0,0-24.21-19c-17.13-7-37.7-6-54.22,4.8-17.65,11.54-28.76,33.53-26.69,56.14,2,22,16.7,41.3,35.79,47.54a70.27,70.27,0,0,0,19.51,3c14.45.48,28.58-1.31,40.42-8.18,11.19-6.49,20.47-18.45,22.46-32.17C490.91,234.71,489.5,226.15,487.52,217.91Z" transform="translate(-19.92 -28.44)"/><path class="cls-3" d="M489.7,243.06c1.21-8.35-.2-16.91-2.18-25.15-2.25-9.41-5.38-19-10.88-27a54,54,0,0,0-24.21-19A60,60,0,0,0,418,168.73c13.5,3.11,32.25,10.3,45.81,27.29,19.9,24.95,6,65.29-11.47,71.23a94.49,94.49,0,0,1-68.12-3.19,49.87,49.87,0,0,0,23.05,16.39,70.27,70.27,0,0,0,19.51,3c14.45.48,28.58-1.31,40.42-8.18C478.43,268.74,487.71,256.78,489.7,243.06Z" transform="translate(-19.92 -28.44)"/><path class="cls-5" d="M429,235.59s-13.68-2.33-19,3.85c-8.67,10.13-11.64,38.72,19.41,32.94,24.63-4.58,14.94-27.16,8.87-32.3A19,19,0,0,0,429,235.59Z" transform="translate(-19.92 -28.44)"/><path class="cls-6" d="M408.29,243.91a10.11,10.11,0,0,1,5.38-6.14c3.76-1.73,9.12-1.84,12.29-1.76s6.78,1,8.63,2.4c2,1.49,2.67,8.76.92,6.82-1.6-1.77-4.33-6.29-4.9-6s.32,6.28-1.89,4.82-3.67-6.33-4.28-5.76.15,6.34-1.63,6.15c-2.25-.24-3.37-6.46-4.34-5.8s-.38,7-2.13,7.1c-2.15.08-3.32-5-3.93-4.52s.84,7-1.34,7.45S408.29,243.91,408.29,243.91Z" transform="translate(-19.92 -28.44)"/><path class="cls-7" d="M438.4,256.16a7.43,7.43,0,0,1-.18,10.61,20.3,20.3,0,0,1-9,5.14c-9,2-17.41.75-16.67-7,.58-6,6.77-10.78,9.61-9.7a18.7,18.7,0,0,1,3.33,1.43s1.22-5.36,6.05-4.93C433.73,251.94,436.29,254,438.4,256.16Z" transform="translate(-19.92 -28.44)"/><path class="cls-3" d="M382.43,222.41a3.21,3.21,0,0,1-2.54,4,3.78,3.78,0,0,1-4.37-2.66,3.21,3.21,0,0,1,2.59-4A3.78,3.78,0,0,1,382.43,222.41Z" transform="translate(-19.92 -28.44)"/><path class="cls-3" d="M395.44,207.16a7.83,7.83,0,0,1-6.18,9.76A9.54,9.54,0,0,1,378.55,210,7.82,7.82,0,0,1,385,200,9.55,9.55,0,0,1,395.44,207.16Z" transform="translate(-19.92 -28.44)"/><path class="cls-3" d="M398.53,194.82a2.77,2.77,0,0,1-2.24,3.52,3.49,3.49,0,0,1-3.77-2.67,2.77,2.77,0,0,1,2.27-3.54A3.49,3.49,0,0,1,398.53,194.82Z" transform="translate(-19.92 -28.44)"/><path class="cls-3" d="M413.21,184.88c.6,2.74-.95,5.23-3.51,5.57a5.55,5.55,0,0,1-5.85-4.41c-.65-2.82,1-5.35,3.59-5.64A5.58,5.58,0,0,1,413.21,184.88Z" transform="translate(-19.92 -28.44)"/><path class="cls-3" d="M426.74,181.17a2.5,2.5,0,0,1-2,3.17,3.1,3.1,0,0,1-3.18-2.56,2.49,2.49,0,0,1,2-3.18A3.07,3.07,0,0,1,426.74,181.17Z" transform="translate(-19.92 -28.44)"/><path class="cls-3" d="M441,185.23c.39,2-.71,3.87-2.48,4.12a3.82,3.82,0,0,1-4-3.26c-.41-2.07.73-3.93,2.52-4.15A3.82,3.82,0,0,1,441,185.23Z" transform="translate(-19.92 -28.44)"/><path class="cls-3" d="M383.66,240.62a3.81,3.81,0,0,1-2.9,4.64,4.12,4.12,0,0,1-5-2.8,3.79,3.79,0,0,1,2.95-4.68A4.13,4.13,0,0,1,383.66,240.62Z" transform="translate(-19.92 -28.44)"/><path class="cls-3" d="M387.7,252.4a2.09,2.09,0,0,1-1.55,2.53,2.06,2.06,0,1,1,1.55-2.53Z" transform="translate(-19.92 -28.44)"/><path class="cls-3" d="M396.85,261.82a1.58,1.58,0,0,1-1.12,1.88,1.49,1.49,0,0,1-1.89-1,1.59,1.59,0,0,1,1.13-1.89A1.49,1.49,0,0,1,396.85,261.82Z" transform="translate(-19.92 -28.44)"/><path class="cls-3" d="M461.26,250.2a2.71,2.71,0,0,1-1.68,3.07,2.07,2.07,0,0,1-2.61-1.76,2.71,2.71,0,0,1,1.7-3.09A2.07,2.07,0,0,1,461.26,250.2Z" transform="translate(-19.92 -28.44)"/><path class="cls-3" d="M469.2,237.32a4.59,4.59,0,0,1-2.87,5.23c-2,.58-4-.85-4.43-3.21a4.56,4.56,0,0,1,2.93-5.29C466.84,233.51,468.79,235,469.2,237.32Z" transform="translate(-19.92 -28.44)"/><path class="cls-3" d="M469.43,228.65a1,1,0,0,1-.66,1.19.84.84,0,0,1-1-.77,1,1,0,0,1,.66-1.2A.85.85,0,0,1,469.43,228.65Z" transform="translate(-19.92 -28.44)"/><path class="cls-3" d="M468.3,213.61a1.85,1.85,0,0,1-1.22,2.18,1.66,1.66,0,0,1-1.87-1.52,1.83,1.83,0,0,1,1.23-2.18A1.66,1.66,0,0,1,468.3,213.61Z" transform="translate(-19.92 -28.44)"/><path class="cls-6" d="M403.79,216.93s-8.07-1.35-8,4.6,3.32,11.78,10.34,11.8C413,233.35,411.33,220.31,403.79,216.93Z" transform="translate(-19.92 -28.44)"/><path class="cls-8" d="M405.25,223.08a3.9,3.9,0,0,1-2.94,4.78,4.23,4.23,0,0,1-4.93-3.16,3.9,3.9,0,0,1,3-4.83A4.24,4.24,0,0,1,405.25,223.08Z" transform="translate(-19.92 -28.44)"/><path class="cls-6" d="M431.39,216s-6.42.48-5.1,6.63,5.19,8.73,10.18,6.48S438.82,215.32,431.39,216Z" transform="translate(-19.92 -28.44)"/><path class="cls-8" d="M433.49,221.15a3.71,3.71,0,0,1-2.63,4.47,3.84,3.84,0,1,1,2.63-4.47Z" transform="translate(-19.92 -28.44)"/><path class="cls-8" d="M411,223.64s-27.58-6.42-26.83-7.32,9.4-8.85,9.4-8.85l18,13.83Z" transform="translate(-19.92 -28.44)"/><polygon class="cls-8" points="402.32 191.6 404.52 192.92 425.12 183.94 413.54 177 402.32 191.6"/><path class="cls-4" d="M474.12,259.33a3.06,3.06,0,0,1-1.8,3.39,2.12,2.12,0,0,1-2.75-1.85,3.07,3.07,0,0,1,1.83-3.41A2.11,2.11,0,0,1,474.12,259.33Z" transform="translate(-19.92 -28.44)"/><path class="cls-4" d="M480.61,243.24a1.42,1.42,0,0,1-.86,1.59,1,1,0,0,1-1.27-1,1.43,1.43,0,0,1,.86-1.61A1,1,0,0,1,480.61,243.24Z" transform="translate(-19.92 -28.44)"/><path class="cls-4" d="M479.76,204.91c.4,2.56-.94,5-3,5.41s-4.14-1.3-4.56-3.91.95-5.07,3.06-5.46S479.36,202.34,479.76,204.91Z" transform="translate(-19.92 -28.44)"/><path class="cls-4" d="M485.48,221c.34,2.23-.83,4.41-2.64,4.87s-3.6-1-4-3.25.84-4.5,2.68-4.93S485.14,218.77,485.48,221Z" transform="translate(-19.92 -28.44)"/><path class="cls-4" d="M451,273.32a3.23,3.23,0,0,1-2,3.58,2.29,2.29,0,0,1-3.08-1.8,3.22,3.22,0,0,1,2-3.61A2.3,2.3,0,0,1,451,273.32Z" transform="translate(-19.92 -28.44)"/><path class="cls-4" d="M426.9,274.8a2.84,2.84,0,0,1-1.83,3.23,2.23,2.23,0,0,1-3-1.61,2.83,2.83,0,0,1,1.85-3.26A2.24,2.24,0,0,1,426.9,274.8Z" transform="translate(-19.92 -28.44)"/><path class="cls-4" d="M457.32,178.9a1.18,1.18,0,0,1-.87,1.47,1.34,1.34,0,0,1-1.34-1.2,1.18,1.18,0,0,1,.87-1.47A1.34,1.34,0,0,1,457.32,178.9Z" transform="translate(-19.92 -28.44)"/><path class="cls-4" d="M468.65,187c.39,2.37-.84,4.53-2.77,4.83s-3.88-1.38-4.3-3.79.86-4.62,2.84-4.89S468.26,184.63,468.65,187Z" transform="translate(-19.92 -28.44)"/><path class="cls-4" d="M475.28,193.77c.29,1.82-.65,3.51-2.12,3.77s-2.94-1-3.25-2.88.67-3.56,2.17-3.8S475,191.93,475.28,193.77Z" transform="translate(-19.92 -28.44)"/></g></g></svg>